<?xml version="1.0" encoding="UTF-8" standalone="no"?>
<!-- Created with Inkscape (http://www.inkscape.org/) -->

<svg
   xmlns:dc="http://purl.org/dc/elements/1.1/"
   xmlns:cc="http://creativecommons.org/ns#"
   xmlns:rdf="http://www.w3.org/1999/02/22-rdf-syntax-ns#"
   xmlns:svg="http://www.w3.org/2000/svg"
   xmlns="http://www.w3.org/2000/svg"
   xmlns:xlink="http://www.w3.org/1999/xlink"
   xmlns:sodipodi="http://sodipodi.sourceforge.net/DTD/sodipodi-0.dtd"
   xmlns:inkscape="http://www.inkscape.org/namespaces/inkscape"
   width="169.76703mm"
   height="47.862812mm"
   viewBox="0 0 601.53672 169.59264"
   id="svg2"
   version="1.1"
   inkscape:version="0.91 r13725"
   sodipodi:docname="surfsaralovessing.svg">
  <sodipodi:namedview
     id="base"
     pagecolor="#ffffff"
     bordercolor="#666666"
     borderopacity="1.0"
     inkscape:pageopacity="0.0"
     inkscape:pageshadow="2"
     inkscape:zoom="0.40627766"
     inkscape:cx="156.30196"
     inkscape:cy="115.3393"
     inkscape:document-units="px"
     inkscape:current-layer="layer1"
     showgrid="true"
     inkscape:window-width="1412"
     inkscape:window-height="855"
     inkscape:window-x="28"
     inkscape:window-y="1"
     inkscape:window-maximized="1"
     fit-margin-top="0"
     fit-margin-left="0"
     fit-margin-right="0"
     fit-margin-bottom="0">
    <inkscape:grid
       type="xygrid"
       id="grid4510"
       originx="-42.713479"
       originy="-444.19515" />
  </sodipodi:namedview>
  <defs
     id="defs4">
    <clipPath
       clipPathUnits="userSpaceOnUse"
       id="clipPath4370">
      <path
         d="M 0,0 101,0 101,38 0,38 0,0 Z"
         id="path4372"
         inkscape:connector-curvature="0" />
    </clipPath>
  </defs>
  <metadata
     id="metadata7">
    <rdf:RDF>
      <cc:Work
         rdf:about="">
        <dc:format>image/svg+xml</dc:format>
        <dc:type
           rdf:resource="http://purl.org/dc/dcmitype/StillImage" />
        <dc:title></dc:title>
      </cc:Work>
    </rdf:RDF>
  </metadata>
  <g
     id="layer1"
     inkscape:groupmode="layer"
     inkscape:label="Layer 1"
     transform="translate(-42.71348,-438.57445)">
    <g
       id="g4512">
      <g
         id="g4331"
         transform="matrix(0.32500158,0,0,0.35146708,263.85437,300.62768)">
        <path
           sodipodi:nodetypes="cccc"
           style="fill:#ff0000;fill-rule:evenodd;stroke:#ff0000;stroke-width:1px;stroke-linecap:butt;stroke-linejoin:miter;stroke-opacity:1"
           d="m 356.27586,467.21217 0,365.28572 c 0,0 -174.37125,-114.90317 -200.42857,-244.28572 -40.32883,-207.22078 152.71203,-187.83701 200.42857,-121 z"
           id="use3366"
           inkscape:connector-curvature="0" />
        <use
           height="100%"
           width="100%"
           transform="matrix(-1,0,0,1,711.61196,0)"
           id="use3372"
           xlink:href="#use3366"
           y="0"
           x="0" />
      </g>
      <g
         id="g4433"
         transform="matrix(0.69299278,0,0,0.72601877,329.30913,283.71894)">
        <path
           style="fill:#bf9f3d"
           d="m 330.66976,446.53522 c -18.55464,-1.73401 -36.38162,-8.00665 -51.94981,-18.27918 -23.3223,-15.38901 -40.61691,-39.3961 -48.13058,-66.81128 -2.02101,-7.3741 -4.01261,-19.98153 -3.76741,-23.84894 l 0.16265,-2.56538 11.47945,0 11.47945,0 0.34367,2.35055 c 0.18901,1.29279 0.61907,4.3485 0.95567,6.79046 3.47892,25.23841 18.77584,49.3968 40.25116,63.56855 13.18729,8.70241 27.84729,13.65078 43.52452,14.69136 l 5.31459,0.35276 0,12.0139 0,12.01389 -2.61172,0.0691 c -1.43644,0.038 -4.60968,-0.1176 -7.05164,-0.34581 z m 14.97385,-0.33271 c -0.47652,-0.47651 -0.42769,-22.22974 0.0515,-22.95251 0.21107,-0.31834 2.69394,-0.86652 5.51748,-1.21818 35.34705,-4.40228 64.43401,-28.81967 75.5061,-63.38447 1.83481,-5.72789 3.50292,-13.63628 4.01563,-19.03776 0.19724,-2.07808 0.6524,-4.02213 1.01145,-4.32012 0.41737,-0.34639 4.5849,-0.4908 11.5555,-0.40041 l 10.9027,0.14138 0.17279,2.35055 c 0.23015,3.13097 -0.75334,10.94692 -2.27068,18.04544 -3.43518,16.07069 -10.09595,30.91405 -20.02974,44.63576 -4.61618,6.37639 -15.08844,17.33943 -21.0681,22.05546 -12.98414,10.24029 -28.32816,17.85968 -43.2521,21.47772 -9.32371,2.26036 -21.07392,3.64575 -22.11253,2.60714 z m -23.85368,-52.95643 c -7.8404,-0.73375 -15.99217,-1.99798 -21.93842,-3.40235 -7.32623,-1.73028 -16.72862,-4.87956 -17.04724,-5.70988 -0.22125,-0.57656 11.80401,-38.66262 12.62852,-39.99671 0.63648,-1.02985 1.6275,-0.3357 3.89637,2.72917 4.29774,5.80551 12.42841,11.74962 19.06554,13.93827 7.10976,2.34452 12.10286,1.92556 15.31333,-1.28491 1.64337,-1.64337 1.77281,-1.99685 1.52768,-4.17165 -0.46195,-4.09838 -3.66496,-6.37775 -16.0575,-11.42702 -19.14469,-7.80041 -26.94395,-14.59173 -30.63119,-26.67254 -1.38571,-4.54013 -1.25941,-15.21795 0.24564,-20.76721 4.31163,-15.89745 16.86198,-25.19589 39.01985,-28.90944 7.87182,-1.31928 28.51569,-1.32914 37.59309,-0.018 15.89593,2.29609 30.55709,5.99242 30.55709,7.70397 0,0.48498 -11.39627,33.55455 -12.81322,37.18127 -0.19643,0.50276 -0.55079,0.9141 -0.78747,0.9141 -0.23668,0 -2.73837,-2.31605 -5.55931,-5.14679 -7.62298,-7.64946 -14.42193,-11.20299 -22.76246,-11.89702 -6.51125,-0.5418 -10.385,1.32063 -11.14222,5.357 -0.33961,1.81025 0.56844,3.85181 2.35812,5.30175 1.7113,1.38645 7.91675,4.282 16.49306,7.69588 24.50817,9.75572 32.10566,16.05708 35.57681,29.50744 1.25885,4.87794 1.13355,14.17421 -0.26262,19.48366 -3.19179,12.13791 -12.17009,21.00481 -26.09691,25.77309 -8.85906,3.03318 -15.7514,3.95428 -30.89453,4.12879 -7.32586,0.0844 -15.55277,-0.0555 -18.28201,-0.31091 z m -95.23186,-63.90009 c -0.4085,-1.06455 0.49862,-12.90347 1.43418,-18.71739 5.18601,-32.22811 24.18506,-61.38644 51.74904,-79.42059 10.09636,-6.60569 24.25798,-12.52211 36.38211,-15.19964 8.28495,-1.82968 22.51705,-3.30747 23.85996,-2.47751 0.47024,0.29063 0.59547,3.38077 0.49059,12.10581 l -0.14083,11.71557 -2.08938,0.12916 c -4.51704,0.27923 -12.15913,1.25144 -15.90751,2.02371 -10.63822,2.19178 -24.46957,8.24891 -33.19276,14.53603 -22.79613,16.42998 -36.85136,41.8061 -38.78248,70.02009 l -0.39328,5.74578 -11.56248,0.14042 c -9.60034,0.11659 -11.61079,0.0145 -11.84716,-0.60144 z m 205.20025,0.0693 c -0.1173,-0.35911 -0.48092,-3.59111 -0.80805,-7.18222 -1.12403,-12.33921 -4.2971,-23.79612 -9.41769,-34.00418 -13.8706,-27.65146 -38.87948,-45.76221 -69.05618,-50.00862 l -6.39751,-0.90024 -0.14061,-11.61856 c -0.11649,-9.62544 -0.0139,-11.66719 0.59801,-11.902 0.40624,-0.15589 3.05512,-0.0303 5.88639,0.27914 43.00101,4.69942 79.68988,33.6547 95.01335,74.98566 4.10452,11.07084 7.02911,26.19526 7.02911,36.35078 l 0,4.65317 -11.24677,0 c -8.53545,0 -11.29819,-0.15741 -11.46005,-0.65293 z"
           id="path4421"
           inkscape:connector-curvature="0" />
        <path
           style="fill:#9b668f"
           d="m 330.66976,446.53522 c -18.55464,-1.73401 -36.38162,-8.00665 -51.94981,-18.27918 -23.3223,-15.38901 -40.61691,-39.3961 -48.13058,-66.81128 -2.02101,-7.3741 -4.01261,-19.98153 -3.76741,-23.84894 l 0.16265,-2.56538 11.47945,0 11.47945,0 0.34367,2.35055 c 0.18901,1.29279 0.61907,4.3485 0.95567,6.79046 3.47892,25.23841 18.77584,49.3968 40.25116,63.56855 13.18729,8.70241 27.84729,13.65078 43.52452,14.69136 l 5.31459,0.35276 0,12.0139 0,12.01389 -2.61172,0.0691 c -1.43644,0.038 -4.60968,-0.1176 -7.05164,-0.34581 z m 14.97385,-0.33271 c -0.47652,-0.47651 -0.42769,-22.22974 0.0515,-22.95251 0.21107,-0.31834 2.69394,-0.86652 5.51748,-1.21818 35.34705,-4.40228 64.43401,-28.81967 75.5061,-63.38447 1.83481,-5.72789 3.50292,-13.63628 4.01563,-19.03776 0.19724,-2.07808 0.6524,-4.02213 1.01145,-4.32012 0.41737,-0.34639 4.5849,-0.4908 11.5555,-0.40041 l 10.9027,0.14138 0.17279,2.35055 c 0.23015,3.13097 -0.75334,10.94692 -2.27068,18.04544 -3.43518,16.07069 -10.09595,30.91405 -20.02974,44.63576 -4.61618,6.37639 -15.08844,17.33943 -21.0681,22.05546 -12.98414,10.24029 -28.32816,17.85968 -43.2521,21.47772 -9.32371,2.26036 -21.07392,3.64575 -22.11253,2.60714 z m -23.85368,-52.95643 c -7.8404,-0.73375 -15.99217,-1.99798 -21.93842,-3.40235 -7.32623,-1.73028 -16.72862,-4.87956 -17.04724,-5.70988 -0.22125,-0.57656 11.80401,-38.66262 12.62852,-39.99671 0.63648,-1.02985 1.6275,-0.3357 3.89637,2.72917 4.29774,5.80551 12.42841,11.74962 19.06554,13.93827 7.10976,2.34452 12.10286,1.92556 15.31333,-1.28491 1.64337,-1.64337 1.77281,-1.99685 1.52768,-4.17165 -0.46195,-4.09838 -3.66496,-6.37775 -16.0575,-11.42702 -19.14469,-7.80041 -26.94395,-14.59173 -30.63119,-26.67254 -1.38571,-4.54013 -1.25941,-15.21795 0.24564,-20.76721 4.31163,-15.89745 16.86198,-25.19589 39.01985,-28.90944 7.87182,-1.31928 28.51569,-1.32914 37.59309,-0.018 15.89593,2.29609 30.55709,5.99242 30.55709,7.70397 0,0.48498 -11.39627,33.55455 -12.81322,37.18127 -0.19643,0.50276 -0.55079,0.9141 -0.78747,0.9141 -0.23668,0 -2.73837,-2.31605 -5.55931,-5.14679 -7.62298,-7.64946 -14.42193,-11.20299 -22.76246,-11.89702 -6.51125,-0.5418 -10.385,1.32063 -11.14222,5.357 -0.33961,1.81025 0.56844,3.85181 2.35812,5.30175 1.7113,1.38645 7.91675,4.282 16.49306,7.69588 24.50817,9.75572 32.10566,16.05708 35.57681,29.50744 1.25885,4.87794 1.13355,14.17421 -0.26262,19.48366 -3.19179,12.13791 -12.17009,21.00481 -26.09691,25.77309 -8.85906,3.03318 -15.7514,3.95428 -30.89453,4.12879 -7.32586,0.0844 -15.55277,-0.0555 -18.28201,-0.31091 z m -95.23186,-63.90009 c -0.4085,-1.06455 0.49862,-12.90347 1.43418,-18.71739 5.18601,-32.22811 24.18506,-61.38644 51.74904,-79.42059 10.09636,-6.60569 24.25798,-12.52211 36.38211,-15.19964 8.28495,-1.82968 22.51705,-3.30747 23.85996,-2.47751 0.47024,0.29063 0.59547,3.38077 0.49059,12.10581 l -0.14083,11.71557 -2.08938,0.12916 c -4.51704,0.27923 -12.15913,1.25144 -15.90751,2.02371 -10.63822,2.19178 -24.46957,8.24891 -33.19276,14.53603 -22.79613,16.42998 -36.85136,41.8061 -38.78248,70.02009 l -0.39328,5.74578 -11.56248,0.14042 c -9.60034,0.11659 -11.61079,0.0145 -11.84716,-0.60144 z"
           id="path4419"
           inkscape:connector-curvature="0" />
        <path
           style="fill:#53905b"
           d="m 325.7075,445.21223 c -19.6714,-2.66829 -39.52661,-11.19549 -55.10722,-23.66684 -4.7087,-3.76903 -13.59208,-12.61251 -17.38252,-17.30446 -11.78843,-14.59215 -20.27863,-32.87153 -23.86746,-51.38665 -0.89923,-4.63919 -2.10452,-13.93795 -2.10452,-16.23622 0,-0.69874 1.45781,-0.8041 11.12567,-0.8041 l 11.12567,0 0.62637,5.61519 c 4.36388,39.12078 34.14109,72.09162 72.2861,80.03886 3.97409,0.82798 14.25967,2.09735 17.00943,2.09919 0.50208,3.4e-4 0.65292,2.59497 0.65292,11.23082 l 0,11.23038 -4.5705,-0.0538 c -2.51378,-0.0296 -6.92105,-0.37266 -9.79394,-0.76235 z m 20.87351,0.36066 c -0.13252,-0.13252 -0.24094,-5.12351 -0.24094,-11.09109 l 0,-10.85015 2.48113,-0.32019 c 10.64799,-1.37413 16.86806,-2.8768 24.83534,-5.99985 10.6078,-4.15809 20.35749,-10.39301 28.9446,-18.51005 15.93306,-15.06086 25.5227,-33.81932 28.72891,-56.19714 l 0.9355,-6.52929 10.4094,-0.14194 c 5.72516,-0.0781 10.58265,0.0394 10.79441,0.26117 0.97807,1.02405 -1.58605,17.73302 -3.9991,26.05998 -12.13036,41.85931 -45.31011,73.05792 -86.58509,81.41516 -6.25719,1.26694 -15.82378,2.38376 -16.30416,1.90339 z M 322.0511,392.6971 c -11.62417,-0.95345 -23.02474,-3.1495 -32.64646,-6.28858 -2.72925,-0.89042 -5.27323,-1.91025 -5.6533,-2.2663 -0.56826,-0.53236 0.43495,-4.1151 5.64693,-20.16669 3.48587,-10.73563 6.46583,-19.64216 6.62211,-19.79229 0.15629,-0.15013 0.90593,0.54797 1.66589,1.55134 9.69761,12.80388 25.48363,20.07895 34.39403,15.85069 4.70717,-2.2337 5.04626,-7.90143 0.69111,-11.55147 -1.40957,-1.18135 -8.7121,-4.75431 -14.12243,-6.90978 -19.3141,-7.69471 -27.73673,-15.7546 -30.10098,-28.80461 -0.95682,-5.28137 -0.63294,-12.11817 0.84845,-17.91037 3.61701,-14.14238 15.42731,-23.71321 33.82985,-27.41502 15.18594,-3.05476 34.67953,-2.68093 53.93202,1.03427 9.47393,1.82821 18.28202,4.4692 18.28202,5.48163 0,0.27417 -11.50354,33.34242 -12.51243,35.96842 l -0.58412,1.52038 -4.45566,-4.55707 c -7.32082,-7.48744 -14.06184,-11.27796 -22.13339,-12.44575 -6.77002,-0.97948 -11.34794,0.45799 -12.84134,4.0322 -1.02734,2.45877 -0.94909,3.47703 0.42319,5.50675 1.5766,2.33191 6.45934,4.90958 17.89026,9.44453 19.1453,7.59543 26.74104,12.38272 31.65609,19.95158 3.85599,5.93798 5.50267,14.18094 4.59633,23.00846 -2.04945,19.96135 -17.31702,31.76637 -44.98108,34.77979 -5.77242,0.62878 -22.66111,0.61652 -30.44709,-0.0221 z m -94.96933,-62.96704 c -1.06052,-1.06053 0.44043,-16.22087 2.52705,-25.52445 10.17072,-45.34797 45.76465,-80.20157 90.61408,-88.72938 5.25422,-0.99905 15.43333,-2.01733 18.02084,-1.80273 l 2.08938,0.17329 0.1408,11.37343 c 0.10926,8.82468 -0.008,11.42484 -0.52234,11.60278 -0.36473,0.12614 -3.45899,0.47957 -6.87612,0.78542 -26.49025,2.37093 -50.09626,15.93933 -65.89391,37.87488 -4.11833,5.71842 -10.62944,18.59803 -12.7811,25.28227 -2.10181,6.52934 -3.54847,13.97901 -4.32095,22.25097 l -0.63413,6.79047 -11.00263,0.14069 c -6.05145,0.0774 -11.16389,-0.0206 -11.36097,-0.21764 z"
           id="path4417"
           inkscape:connector-curvature="0" />
        <path
           style="fill:#834074"
           d="m 325.7075,445.21223 c -19.6714,-2.66829 -39.52661,-11.19549 -55.10722,-23.66684 -4.7087,-3.76903 -13.59208,-12.61251 -17.38252,-17.30446 -11.78843,-14.59215 -20.27863,-32.87153 -23.86746,-51.38665 -0.89923,-4.63919 -2.10452,-13.93795 -2.10452,-16.23622 0,-0.69874 1.45781,-0.8041 11.12567,-0.8041 l 11.12567,0 0.62637,5.61519 c 4.36388,39.12078 34.14109,72.09162 72.2861,80.03886 3.97409,0.82798 14.25967,2.09735 17.00943,2.09919 0.50208,3.4e-4 0.65292,2.59497 0.65292,11.23082 l 0,11.23038 -4.5705,-0.0538 c -2.51378,-0.0296 -6.92105,-0.37266 -9.79394,-0.76235 z m 20.87351,0.36066 c -0.13252,-0.13252 -0.24094,-5.12351 -0.24094,-11.09109 l 0,-10.85015 2.48113,-0.32019 c 10.64799,-1.37413 16.86806,-2.8768 24.83534,-5.99985 10.6078,-4.15809 20.35749,-10.39301 28.9446,-18.51005 15.93306,-15.06086 25.5227,-33.81932 28.72891,-56.19714 l 0.9355,-6.52929 10.4094,-0.14194 c 5.72516,-0.0781 10.58265,0.0394 10.79441,0.26117 0.97807,1.02405 -1.58605,17.73302 -3.9991,26.05998 -12.13036,41.85931 -45.31011,73.05792 -86.58509,81.41516 -6.25719,1.26694 -15.82378,2.38376 -16.30416,1.90339 z m -19.30648,-52.62687 c -13.53244,-0.88344 -26.76843,-3.20673 -37.11667,-6.51499 -4.95652,-1.58457 -6.50217,-2.29007 -6.51236,-2.97252 -0.0195,-1.30896 12.14989,-38.76472 12.59471,-38.76472 0.20723,0 1.51589,1.42759 2.90814,3.17241 5.09182,6.38128 14.11476,12.43575 21.31488,14.30247 8.63084,2.23765 15.76927,-0.76193 15.61718,-6.56237 -0.11029,-4.20627 -4.40658,-7.46607 -15.85751,-12.03186 -16.11898,-6.42706 -24.13424,-12.11903 -28.34234,-20.12707 -2.58202,-4.91357 -3.50431,-9.14528 -3.50923,-16.10113 -0.008,-11.28678 2.98104,-18.98839 10.14471,-26.13924 3.5209,-3.5146 5.10429,-4.64333 9.69296,-6.90966 14.61991,-7.22074 36.48964,-9.10906 61.50047,-5.31021 13.29756,2.01975 25.20853,5.2285 25.20853,6.79104 0,1.06785 -11.93788,35.53994 -12.52846,36.17744 -0.21941,0.23685 -2.48517,-1.65758 -5.03503,-4.20983 -8.0241,-8.03164 -14.92425,-11.56498 -23.49085,-12.0289 -5.70764,-0.3091 -7.91692,0.30273 -10.1092,2.79959 -1.19797,1.36441 -1.59314,2.32374 -1.59314,3.86751 0,4.22937 3.86527,6.82693 19.06553,12.81253 15.34007,6.04065 25.19731,11.6593 29.47439,16.80046 7.67552,9.22617 9.06225,25.83298 3.1757,38.03047 -5.69909,11.80907 -17.79079,18.99488 -36.97511,21.97344 -4.96173,0.77036 -23.32917,1.3563 -29.6273,0.94514 z m -99.50641,-68.05336 c 0,-9.68574 3.04192,-25.1397 7.05238,-35.82843 11.67244,-31.10952 35.37792,-55.28424 66.04395,-67.35128 9.8959,-3.89402 25.59739,-7.08265 34.87646,-7.08265 l 3.80869,0 0,10.8903 0,10.89031 -5.09285,0.31505 c -36.41994,2.253 -68.84464,27.79246 -80.55279,63.44777 -2.5264,7.69373 -4.13928,15.91456 -4.55794,23.23176 l -0.32144,5.618 -10.62823,0 -10.62823,0 0,-4.13083 z"
           id="path4415"
           inkscape:connector-curvature="0" />
        <path
           style="fill:#3d4c88"
           d="m 325.7075,445.21223 c -19.6714,-2.66829 -39.52661,-11.19549 -55.10722,-23.66684 -4.7087,-3.76903 -13.59208,-12.61251 -17.38252,-17.30446 -11.78843,-14.59215 -20.27863,-32.87153 -23.86746,-51.38665 -0.89923,-4.63919 -2.10452,-13.93795 -2.10452,-16.23622 0,-0.69874 1.45781,-0.8041 11.12567,-0.8041 l 11.12567,0 0.62637,5.61519 c 4.36388,39.12078 34.14109,72.09162 72.2861,80.03886 3.97409,0.82798 14.25967,2.09735 17.00943,2.09919 0.50208,3.4e-4 0.65292,2.59497 0.65292,11.23082 l 0,11.23038 -4.5705,-0.0538 c -2.51378,-0.0296 -6.92105,-0.37266 -9.79394,-0.76235 z m 1.56703,-52.26621 c -13.53244,-0.88344 -26.76843,-3.20673 -37.11667,-6.51499 -4.95652,-1.58457 -6.50217,-2.29007 -6.51236,-2.97252 -0.0195,-1.30896 12.14989,-38.76472 12.59471,-38.76472 0.20723,0 1.51589,1.42759 2.90814,3.17241 5.09182,6.38128 14.11476,12.43575 21.31488,14.30247 8.63084,2.23765 15.76927,-0.76193 15.61718,-6.56237 -0.11029,-4.20627 -4.40658,-7.46607 -15.85751,-12.03186 -16.11898,-6.42706 -24.13424,-12.11903 -28.34234,-20.12707 -2.58202,-4.91357 -3.50431,-9.14528 -3.50923,-16.10113 -0.008,-11.28678 2.98104,-18.98839 10.14471,-26.13924 3.5209,-3.5146 5.10429,-4.64333 9.69296,-6.90966 14.61991,-7.22074 36.48964,-9.10906 61.50047,-5.31021 13.29756,2.01975 25.20853,5.2285 25.20853,6.79104 0,1.06785 -11.93788,35.53994 -12.52846,36.17744 -0.21941,0.23685 -2.48517,-1.65758 -5.03503,-4.20983 -8.0241,-8.03164 -14.92425,-11.56498 -23.49085,-12.0289 -5.70764,-0.3091 -7.91692,0.30273 -10.1092,2.79959 -1.19797,1.36441 -1.59314,2.32374 -1.59314,3.86751 0,4.22937 3.86527,6.82693 19.06553,12.81253 15.34007,6.04065 25.19731,11.6593 29.47439,16.80046 7.67552,9.22617 9.06225,25.83298 3.1757,38.03047 -5.69909,11.80907 -17.79079,18.99488 -36.97511,21.97344 -4.96173,0.77036 -23.32917,1.3563 -29.6273,0.94514 z m -99.50641,-68.05336 c 0,-9.68574 3.04192,-25.1397 7.05238,-35.82843 11.67244,-31.10952 35.37792,-55.28424 66.04395,-67.35128 9.8959,-3.89402 25.59739,-7.08265 34.87646,-7.08265 l 3.80869,0 0,10.8903 0,10.89031 -5.09285,0.31505 c -36.41994,2.253 -68.84464,27.79246 -80.55279,63.44777 -2.5264,7.69373 -4.13928,15.91456 -4.55794,23.23176 l -0.32144,5.618 -10.62823,0 -10.62823,0 0,-4.13083 z"
           id="path4413"
           inkscape:connector-curvature="0" />
        <path
           style="fill:#347d3e"
           d="m 324.92399,392.7399 c -13.87621,-1.06481 -25.67021,-3.27792 -36.43345,-6.83663 -3.5131,-1.16157 -4.83359,-1.83524 -4.83867,-2.46856 -0.0105,-1.30688 12.15392,-38.74092 12.58909,-38.74092 0.20682,0 1.51514,1.42759 2.90739,3.17241 8.29665,10.39772 23.28903,17.28986 31.57406,14.51491 3.91576,-1.31153 6.10758,-4.80615 5.17849,-8.25652 -0.96032,-3.56638 -5.40092,-6.48725 -16.71581,-10.99509 -15.20547,-6.05784 -23.1572,-11.78974 -27.30453,-19.68213 -2.58202,-4.91357 -3.50431,-9.14528 -3.50923,-16.10113 -0.008,-11.28678 2.98104,-18.98839 10.14471,-26.13924 3.5209,-3.5146 5.10429,-4.64333 9.69296,-6.90966 8.50407,-4.20014 18.15243,-6.33299 32.38529,-7.15902 13.32432,-0.77332 35.82482,2.09114 49.7532,6.3339 3.43734,1.04705 4.57051,1.61524 4.57051,2.29171 0,1.03354 -11.94712,35.5451 -12.52526,36.18161 -0.21009,0.23131 -2.59029,-1.78314 -5.28933,-4.47654 -7.84347,-7.82707 -14.57218,-11.22366 -23.23975,-11.73121 -5.7086,-0.33427 -7.90639,0.26983 -10.1092,2.77868 -2.22407,2.53308 -2.20318,5.22575 0.0606,7.80399 2.04997,2.33478 6.47948,4.58801 18.05756,9.18563 15.13822,6.01134 23.93659,10.98445 28.39544,16.04998 2.79266,3.17263 5.53007,8.8937 6.53605,13.66007 1.79309,8.49572 0.12573,19.91629 -3.93455,26.94986 -5.95559,10.31678 -18.19603,17.07904 -35.82141,19.78963 -6.38324,0.98166 -23.95971,1.41077 -32.12411,0.78427 z m -97.15587,-67.84724 c 0,-9.68574 3.04192,-25.1397 7.05238,-35.82843 11.67244,-31.10952 35.37792,-55.28424 66.04395,-67.35128 9.8959,-3.89402 25.59739,-7.08265 34.87646,-7.08265 l 3.80869,0 0,10.8903 0,10.89031 -5.09285,0.31505 c -36.41994,2.253 -68.84464,27.79246 -80.55279,63.44777 -2.5264,7.69373 -4.13928,15.91456 -4.55794,23.23176 l -0.32144,5.618 -10.62823,0 -10.62823,0 0,-4.13083 z"
           id="path4411"
           inkscape:connector-curvature="0" />
        <path
           style="fill:#010101"
           d="m 322.31227,392.21059 c -7.6076,-0.70552 -13.26124,-1.53236 -19.90397,-2.91096 -6.00797,-1.24687 -17.58665,-4.6444 -18.37633,-5.39217 -0.33144,-0.31385 11.11501,-36.8601 12.00386,-38.32596 0.13945,-0.22998 2.14313,1.60147 4.45262,4.0699 6.80327,7.2715 13.46658,11.39504 21.19013,13.11338 6.17079,1.37286 10.54722,0.409 13.36888,-2.94435 0.9988,-1.18699 1.36755,-2.21428 1.36613,-3.80575 -0.004,-4.85768 -3.26075,-7.37825 -16.90479,-13.08495 -17.39908,-7.27726 -23.94855,-12.18144 -28.13197,-21.06496 -4.14917,-8.81077 -3.75505,-22.11112 0.94474,-31.88238 5.53518,-11.50814 18.32291,-18.88027 37.56468,-21.65607 6.9539,-1.00316 27.12046,-0.84243 35.20105,0.28055 9.61045,1.33559 19.54613,3.37038 25.02391,5.1248 4.47834,1.43432 4.82908,1.64445 4.50368,2.69823 -1.0527,3.40916 -12.22698,35.00188 -12.46388,35.23878 -0.15432,0.15432 -1.70164,-1.27024 -3.43848,-3.1657 -8.12219,-8.86394 -18.91498,-13.97587 -28.03918,-13.28056 -3.76479,0.28689 -6.18385,1.51912 -7.85733,4.0024 -1.733,2.57159 -1.54348,4.83992 0.60283,7.21564 2.15312,2.38324 6.65614,4.66123 18.94699,9.58491 23.09303,9.251 30.331,15.1185 33.60337,27.24073 1.02177,3.78505 1.12958,5.1772 0.89941,11.61339 -0.40145,11.22519 -2.6816,16.76287 -9.82688,23.86597 -6.42683,6.3889 -15.61496,10.439 -28.94895,12.76063 -5.56712,0.96931 -28.13386,1.41365 -35.78052,0.7045 z"
           id="path4409"
           inkscape:connector-curvature="0" />
      </g>
      <g
         transform="matrix(2.3095439,0,0,-2.6179044,42.71348,570.47077)"
         inkscape:label="surf_sara"
         id="g4362">
        <g
           id="g4364" />
        <g
           id="g4366">
          <g
             clip-path="url(#clipPath4370)"
             id="g4368">
            <path
               inkscape:connector-curvature="0"
               id="path4374"
               style="fill:#20180e;fill-opacity:1;fill-rule:nonzero;stroke:none"
               d="m 67.809,14.81 c 3.1,0 5.613,-2.513 5.613,-5.613 l 0,-3.586 C 73.422,2.512 70.909,0 67.809,0 l -8.378,0 c -3.099,0 -5.612,2.512 -5.612,5.611 l 0,2.215 c 0,3.857 -3.127,6.984 -6.985,6.984 l -39.85,0 C 3.127,14.81 0,17.936 0,21.794 l 0,8.637 c 0,3.858 3.127,6.985 6.984,6.985 l 39.85,0 c 3.858,0 6.985,-3.127 6.985,-6.985 l 0,-8.637 c 0,-3.858 3.127,-6.984 6.985,-6.984 l 7.005,0" />
            <path
               inkscape:connector-curvature="0"
               id="path4376"
               style="fill:#ffffff;fill-opacity:1;fill-rule:nonzero;stroke:none"
               d="m 12.032,24.043 c 0,0.524 -0.658,0.739 -1.505,0.995 l -1.694,0.51 c -1.223,0.363 -2.298,1.223 -2.298,2.729 0,1.814 1.627,3.051 3.831,3.051 1.707,0 3.722,-0.592 3.722,-1.681 0,-0.671 -0.336,-1.088 -0.954,-1.088 -0.323,0 -0.605,0.107 -0.927,0.215 -0.471,0.175 -1.048,0.376 -1.841,0.376 -0.646,0 -1.452,-0.255 -1.452,-0.766 0,-0.457 0.363,-0.672 1.156,-0.913 l 1.895,-0.578 c 1.277,-0.39 2.446,-1.156 2.446,-2.917 0,-1.882 -1.761,-3.091 -4.018,-3.091 -1.895,0 -4.113,0.591 -4.113,1.68 0,0.672 0.389,1.088 1.062,1.088 0.349,0 0.672,-0.093 1.034,-0.215 0.511,-0.174 1.116,-0.376 2.017,-0.376 0.766,0 1.639,0.349 1.639,0.981" />
            <path
               inkscape:connector-curvature="0"
               id="path4378"
               style="fill:#ffffff;fill-opacity:1;fill-rule:nonzero;stroke:none"
               d="m 23.55,30.118 c 0,0.766 0.404,1.155 1.156,1.155 0.766,0 1.169,-0.389 1.169,-1.155 l 0,-4.435 c 0,-2.916 -1.949,-4.798 -4.61,-4.798 -2.648,0 -4.597,1.882 -4.597,4.798 l 0,4.435 c 0,0.766 0.404,1.155 1.157,1.155 0.765,0 1.169,-0.389 1.169,-1.155 l 0,-4.435 c 0,-1.573 0.954,-2.514 2.271,-2.514 1.331,0 2.285,0.941 2.285,2.514 l 0,4.435" />
            <path
               inkscape:connector-curvature="0"
               id="path4380"
               style="fill:#ffffff;fill-opacity:1;fill-rule:nonzero;stroke:none"
               d="m 30.928,28.962 0,-2.701 1.963,0 c 0.887,0 1.585,0.403 1.585,1.344 0,0.954 -0.698,1.357 -1.585,1.357 l -1.963,0 z m 2.124,-4.812 -2.124,0 0,-2.056 c 0,-0.766 -0.403,-1.156 -1.169,-1.156 -0.752,0 -1.156,0.39 -1.156,1.156 l 0,7.93 c 0,0.766 0.404,1.156 1.156,1.156 l 3.333,0 c 2.232,0 3.777,-1.465 3.777,-3.575 0,-1.29 -0.592,-2.272 -1.586,-2.796 l 1.075,-2.15 c 0.107,-0.215 0.147,-0.416 0.147,-0.619 0,-0.671 -0.765,-1.102 -1.343,-1.102 -0.43,0 -0.739,0.256 -0.954,0.739 l -1.156,2.473" />
            <path
               inkscape:connector-curvature="0"
               id="path4382"
               style="fill:#ffffff;fill-opacity:1;fill-rule:nonzero;stroke:none"
               d="m 41.707,24.594 0,-2.5 c 0,-0.766 -0.389,-1.156 -1.156,-1.156 -0.753,0 -1.155,0.39 -1.155,1.156 l 0,7.93 c 0,0.766 0.402,1.156 1.155,1.156 l 5.565,0 c 0.739,0 1.101,-0.377 1.101,-1.102 0,-0.739 -0.362,-1.116 -1.101,-1.116 l -4.409,0 0,-2.15 2.755,0 c 0.74,0 1.102,-0.377 1.102,-1.116 0,-0.726 -0.362,-1.102 -1.102,-1.102 l -2.755,0" />
            <path
               inkscape:connector-curvature="0"
               id="path4384"
               style="fill:#20180e;fill-opacity:1;fill-rule:nonzero;stroke:none"
               d="m 65.759,24.077 c 0,0.534 -0.671,0.754 -1.534,1.014 l -1.727,0.52 c -1.247,0.37 -2.342,1.247 -2.342,2.783 0,1.849 1.657,3.11 3.904,3.11 1.74,0 3.796,-0.603 3.796,-1.713 0,-0.686 -0.343,-1.11 -0.973,-1.11 -0.329,0 -0.617,0.11 -0.945,0.219 -0.481,0.178 -1.069,0.384 -1.878,0.384 -0.657,0 -1.479,-0.261 -1.479,-0.781 0,-0.466 0.37,-0.685 1.178,-0.932 l 1.932,-0.589 c 1.302,-0.397 2.494,-1.178 2.494,-2.973 0,-1.919 -1.795,-3.152 -4.098,-3.152 -1.931,0 -4.192,0.603 -4.192,1.713 0,0.685 0.397,1.11 1.082,1.11 0.356,0 0.686,-0.096 1.056,-0.219 0.52,-0.179 1.136,-0.384 2.054,-0.384 0.782,0 1.672,0.357 1.672,1" />
            <path
               inkscape:connector-curvature="0"
               id="path4386"
               style="fill:#20180e;fill-opacity:1;fill-rule:nonzero;stroke:none"
               d="m 72.982,24.584 2.946,0 -1.467,3.303 -1.479,-3.303 z m 6.275,-1.986 c 0.111,-0.247 0.165,-0.453 0.165,-0.659 0,-0.643 -0.685,-1.082 -1.329,-1.082 -0.424,0 -0.767,0.274 -0.987,0.74 l -0.439,0.945 -4.425,0 -0.439,-0.945 c -0.219,-0.466 -0.561,-0.74 -0.986,-0.74 -0.644,0 -1.329,0.439 -1.329,1.082 0,0.206 0.054,0.412 0.164,0.659 l 3.7,8.043 c 0.219,0.493 0.562,0.808 1.109,0.808 0.522,0 0.877,-0.315 1.097,-0.808 l 3.699,-8.043" />
            <path
               inkscape:connector-curvature="0"
               id="path4388"
               style="fill:#20180e;fill-opacity:1;fill-rule:nonzero;stroke:none"
               d="m 83.356,29.092 0,-2.754 2,0 c 0.905,0 1.617,0.411 1.617,1.37 0,0.973 -0.712,1.384 -1.617,1.384 l -2,0 z m 2.165,-4.905 -2.165,0 0,-2.097 c 0,-0.78 -0.411,-1.178 -1.192,-1.178 -0.768,0 -1.179,0.398 -1.179,1.178 l 0,8.085 c 0,0.781 0.411,1.179 1.179,1.179 l 3.398,0 c 2.274,0 3.851,-1.495 3.851,-3.646 0,-1.315 -0.604,-2.315 -1.618,-2.85 l 1.097,-2.192 c 0.109,-0.22 0.15,-0.425 0.15,-0.631 0,-0.684 -0.781,-1.123 -1.37,-1.123 -0.438,0 -0.753,0.26 -0.972,0.753 l -1.179,2.522" />
            <path
               inkscape:connector-curvature="0"
               id="path4390"
               style="fill:#20180e;fill-opacity:1;fill-rule:nonzero;stroke:none"
               d="m 93.838,24.584 2.947,0 -1.467,3.303 -1.48,-3.303 z m 6.276,-1.986 c 0.11,-0.247 0.165,-0.453 0.165,-0.659 0,-0.643 -0.686,-1.082 -1.329,-1.082 -0.425,0 -0.768,0.274 -0.988,0.74 l -0.438,0.945 -4.426,0 -0.438,-0.945 c -0.219,-0.466 -0.562,-0.74 -0.987,-0.74 -0.643,0 -1.329,0.439 -1.329,1.082 0,0.206 0.055,0.412 0.164,0.659 l 3.701,8.043 c 0.218,0.493 0.561,0.808 1.109,0.808 0.521,0 0.877,-0.315 1.097,-0.808 l 3.699,-8.043" />
          </g>
        </g>
      </g>
    </g>
  </g>
</svg>
