<?xml version="1.0" encoding="UTF-8" standalone="no"?>
<svg xmlns:rdf="http://www.w3.org/1999/02/22-rdf-syntax-ns#" xmlns="http://www.w3.org/2000/svg" height="47.863mm" width="169.77mm" version="1.1" xmlns:cc="http://creativecommons.org/ns#" xmlns:xlink="http://www.w3.org/1999/xlink" viewBox="0 0 601.53672 169.59264" xmlns:dc="http://purl.org/dc/elements/1.1/">
 <defs>
  <clipPath id="b" clipPathUnits="userSpaceOnUse">
   <path d="m0 0h101v38h-101v-38z"/>
  </clipPath>
 </defs>
 <g transform="translate(-42.713 -438.57)">
  <g transform="matrix(0.325 0 0 .35147 263.85 300.63)">
   <path id="a" d="m356.28 467.21v365.29s-174.37-114.9-200.43-244.29c-40.329-207.22 152.71-187.84 200.43-121z" fill-rule="evenodd" stroke="#f00" stroke-width="1px" fill="#f00"/>
   <use xlink:href="#a" transform="matrix(-1 0 0 1 711.61 0)" height="100%" width="100%" y="0" x="0"/>
  </g>
  <g transform="matrix(.69299 0 0 .72602 329.31 283.72)">
   <path fill="#bf9f3d" d="m330.67 446.54c-18.555-1.734-36.382-8.0066-51.95-18.279-23.322-15.389-40.617-39.396-48.131-66.811-2.021-7.3741-4.0126-19.982-3.7674-23.849l0.16265-2.5654h11.479 11.479l0.34367 2.3506c0.18901 1.2928 0.61907 4.3485 0.95567 6.7905 3.4789 25.238 18.776 49.397 40.251 63.569 13.187 8.7024 27.847 13.651 43.525 14.691l5.3146 0.35276v12.014 12.014l-2.6117 0.0691c-1.4364 0.038-4.6097-0.1176-7.0516-0.34581zm14.974-0.33271c-0.47652-0.47651-0.42769-22.23 0.0515-22.953 0.21107-0.31834 2.6939-0.86652 5.5175-1.2182 35.347-4.4023 64.434-28.82 75.506-63.384 1.8348-5.7279 3.5029-13.636 4.0156-19.038 0.19724-2.0781 0.6524-4.0221 1.0114-4.3201 0.41737-0.34639 4.5849-0.4908 11.556-0.40041l10.903 0.14138 0.17279 2.3506c0.23015 3.131-0.75334 10.947-2.2707 18.045-3.4352 16.071-10.096 30.914-20.03 44.636-4.6162 6.3764-15.088 17.339-21.068 22.055-12.984 10.24-28.328 17.86-43.252 21.478-9.3237 2.2604-21.074 3.6458-22.113 2.6071zm-23.854-52.956c-7.8404-0.73375-15.992-1.998-21.938-3.4024-7.3262-1.7303-16.729-4.8796-17.047-5.7099-0.22125-0.57656 11.804-38.663 12.629-39.997 0.63648-1.0298 1.6275-0.3357 3.8964 2.7292 4.2977 5.8055 12.428 11.75 19.066 13.938 7.1098 2.3445 12.103 1.9256 15.313-1.2849 1.6434-1.6434 1.7728-1.9968 1.5277-4.1716-0.46195-4.0984-3.665-6.3778-16.058-11.427-19.145-7.8004-26.944-14.592-30.631-26.673-1.3857-4.5401-1.2594-15.218 0.24564-20.767 4.3116-15.897 16.862-25.196 39.02-28.909 7.8718-1.3193 28.516-1.3291 37.593-0.018 15.896 2.2961 30.557 5.9924 30.557 7.704 0 0.48498-11.396 33.555-12.813 37.181-0.19643 0.50276-0.55079 0.9141-0.78747 0.9141s-2.7384-2.316-5.5593-5.1468c-7.623-7.6495-14.422-11.203-22.762-11.897-6.5112-0.5418-10.385 1.3206-11.142 5.357-0.33961 1.8102 0.56844 3.8518 2.3581 5.3018 1.7113 1.3864 7.9168 4.282 16.493 7.6959 24.508 9.7557 32.106 16.057 35.577 29.507 1.2588 4.8779 1.1336 14.174-0.26262 19.484-3.1918 12.138-12.17 21.005-26.097 25.773-8.8591 3.0332-15.751 3.9543-30.895 4.1288-7.3259 0.0844-15.553-0.0555-18.282-0.31091zm-95.232-63.9c-0.4085-1.0646 0.49862-12.903 1.4342-18.717 5.186-32.228 24.185-61.386 51.749-79.421 10.096-6.6057 24.258-12.522 36.382-15.2 8.285-1.8297 22.517-3.3075 23.86-2.4775 0.47024 0.29063 0.59547 3.3808 0.49059 12.106l-0.14083 11.716-2.0894 0.12916c-4.517 0.27923-12.159 1.2514-15.908 2.0237-10.638 2.1918-24.47 8.2489-33.193 14.536-22.796 16.43-36.851 41.806-38.782 70.02l-0.39328 5.7458-11.562 0.14042c-9.6003 0.11659-11.611 0.0145-11.847-0.60144zm205.2 0.0693c-0.1173-0.35911-0.48092-3.5911-0.80805-7.1822-1.124-12.339-4.2971-23.796-9.4177-34.004-13.871-27.651-38.879-45.762-69.056-50.009l-6.3975-0.90024-0.14061-11.619c-0.11649-9.6254-0.0139-11.667 0.59801-11.902 0.40624-0.15589 3.0551-0.0303 5.8864 0.27914 43.001 4.6994 79.69 33.655 95.013 74.986 4.1045 11.071 7.0291 26.195 7.0291 36.351v4.6532h-11.247c-8.5354 0-11.298-0.15741-11.46-0.65293z"/>
   <path fill="#9b668f" d="m330.67 446.54c-18.555-1.734-36.382-8.0066-51.95-18.279-23.322-15.389-40.617-39.396-48.131-66.811-2.021-7.3741-4.0126-19.982-3.7674-23.849l0.16265-2.5654h11.479 11.479l0.34367 2.3506c0.18901 1.2928 0.61907 4.3485 0.95567 6.7905 3.4789 25.238 18.776 49.397 40.251 63.569 13.187 8.7024 27.847 13.651 43.525 14.691l5.3146 0.35276v12.014 12.014l-2.6117 0.0691c-1.4364 0.038-4.6097-0.1176-7.0516-0.34581zm14.974-0.33271c-0.47652-0.47651-0.42769-22.23 0.0515-22.953 0.21107-0.31834 2.6939-0.86652 5.5175-1.2182 35.347-4.4023 64.434-28.82 75.506-63.384 1.8348-5.7279 3.5029-13.636 4.0156-19.038 0.19724-2.0781 0.6524-4.0221 1.0114-4.3201 0.41737-0.34639 4.5849-0.4908 11.556-0.40041l10.903 0.14138 0.17279 2.3506c0.23015 3.131-0.75334 10.947-2.2707 18.045-3.4352 16.071-10.096 30.914-20.03 44.636-4.6162 6.3764-15.088 17.339-21.068 22.055-12.984 10.24-28.328 17.86-43.252 21.478-9.3237 2.2604-21.074 3.6458-22.113 2.6071zm-23.854-52.956c-7.8404-0.73375-15.992-1.998-21.938-3.4024-7.3262-1.7303-16.729-4.8796-17.047-5.7099-0.22125-0.57656 11.804-38.663 12.629-39.997 0.63648-1.0298 1.6275-0.3357 3.8964 2.7292 4.2977 5.8055 12.428 11.75 19.066 13.938 7.1098 2.3445 12.103 1.9256 15.313-1.2849 1.6434-1.6434 1.7728-1.9968 1.5277-4.1716-0.46195-4.0984-3.665-6.3778-16.058-11.427-19.145-7.8004-26.944-14.592-30.631-26.673-1.3857-4.5401-1.2594-15.218 0.24564-20.767 4.3116-15.897 16.862-25.196 39.02-28.909 7.8718-1.3193 28.516-1.3291 37.593-0.018 15.896 2.2961 30.557 5.9924 30.557 7.704 0 0.48498-11.396 33.555-12.813 37.181-0.19643 0.50276-0.55079 0.9141-0.78747 0.9141s-2.7384-2.316-5.5593-5.1468c-7.623-7.6495-14.422-11.203-22.762-11.897-6.5112-0.5418-10.385 1.3206-11.142 5.357-0.33961 1.8102 0.56844 3.8518 2.3581 5.3018 1.7113 1.3864 7.9168 4.282 16.493 7.6959 24.508 9.7557 32.106 16.057 35.577 29.507 1.2588 4.8779 1.1336 14.174-0.26262 19.484-3.1918 12.138-12.17 21.005-26.097 25.773-8.8591 3.0332-15.751 3.9543-30.895 4.1288-7.3259 0.0844-15.553-0.0555-18.282-0.31091zm-95.232-63.9c-0.4085-1.0646 0.49862-12.903 1.4342-18.717 5.186-32.228 24.185-61.386 51.749-79.421 10.096-6.6057 24.258-12.522 36.382-15.2 8.285-1.8297 22.517-3.3075 23.86-2.4775 0.47024 0.29063 0.59547 3.3808 0.49059 12.106l-0.14083 11.716-2.0894 0.12916c-4.517 0.27923-12.159 1.2514-15.908 2.0237-10.638 2.1918-24.47 8.2489-33.193 14.536-22.796 16.43-36.851 41.806-38.782 70.02l-0.39328 5.7458-11.562 0.14042c-9.6003 0.11659-11.611 0.0145-11.847-0.60144z"/>
   <path fill="#53905b" d="m325.71 445.21c-19.671-2.6683-39.527-11.195-55.107-23.667-4.7087-3.769-13.592-12.613-17.383-17.304-11.788-14.592-20.279-32.872-23.867-51.387-0.89923-4.6392-2.1045-13.938-2.1045-16.236 0-0.69874 1.4578-0.8041 11.126-0.8041h11.126l0.62637 5.6152c4.3639 39.121 34.141 72.092 72.286 80.039 3.9741 0.82798 14.26 2.0974 17.009 2.0992 0.50208 0.00034 0.65292 2.595 0.65292 11.231v11.23l-4.5705-0.0538c-2.5138-0.0296-6.921-0.37266-9.7939-0.76235zm20.874 0.36066c-0.13252-0.13252-0.24094-5.1235-0.24094-11.091v-10.85l2.4811-0.32019c10.648-1.3741 16.868-2.8768 24.835-5.9998 10.608-4.1581 20.357-10.393 28.945-18.51 15.933-15.061 25.523-33.819 28.729-56.197l0.9355-6.5293 10.409-0.14194c5.7252-0.0781 10.583 0.0394 10.794 0.26117 0.97807 1.024-1.586 17.733-3.9991 26.06-12.13 41.859-45.31 73.058-86.585 81.415-6.2572 1.2669-15.824 2.3838-16.304 1.9034zm-24.53-52.87c-11.624-0.95345-23.025-3.1495-32.646-6.2886-2.7292-0.89042-5.2732-1.9102-5.6533-2.2663-0.56826-0.53236 0.43495-4.1151 5.6469-20.167 3.4859-10.736 6.4658-19.642 6.6221-19.792 0.15629-0.15013 0.90593 0.54797 1.6659 1.5513 9.6976 12.804 25.484 20.079 34.394 15.851 4.7072-2.2337 5.0463-7.9014 0.69111-11.551-1.4096-1.1814-8.7121-4.7543-14.122-6.9098-19.314-7.6947-27.737-15.755-30.101-28.805-0.95682-5.2814-0.63294-12.118 0.84845-17.91 3.617-14.142 15.427-23.713 33.83-27.415 15.186-3.0548 34.68-2.6809 53.932 1.0343 9.4739 1.8282 18.282 4.4692 18.282 5.4816 0 0.27417-11.504 33.342-12.512 35.968l-0.58412 1.5204-4.4557-4.5571c-7.3208-7.4874-14.062-11.278-22.133-12.446-6.77-0.97948-11.348 0.45799-12.841 4.0322-1.0273 2.4588-0.94909 3.477 0.42319 5.5068 1.5766 2.3319 6.4593 4.9096 17.89 9.4445 19.145 7.5954 26.741 12.383 31.656 19.952 3.856 5.938 5.5027 14.181 4.5963 23.008-2.0494 19.961-17.317 31.766-44.981 34.78-5.7724 0.62878-22.661 0.61652-30.447-0.0221zm-94.969-62.967c-1.0605-1.0605 0.44043-16.221 2.527-25.524 10.171-45.348 45.765-80.202 90.614-88.729 5.2542-0.99905 15.433-2.0173 18.021-1.8027l2.0894 0.17329 0.1408 11.373c0.10926 8.8247-0.008 11.425-0.52234 11.603-0.36473 0.12614-3.459 0.47957-6.8761 0.78542-26.49 2.3709-50.096 15.939-65.894 37.875-4.1183 5.7184-10.629 18.598-12.781 25.282-2.1018 6.5293-3.5485 13.979-4.321 22.251l-0.63413 6.7905-11.003 0.14069c-6.0514 0.0774-11.164-0.0206-11.361-0.21764z"/>
   <path fill="#834074" d="m325.71 445.21c-19.671-2.6683-39.527-11.195-55.107-23.667-4.7087-3.769-13.592-12.613-17.383-17.304-11.788-14.592-20.279-32.872-23.867-51.387-0.89923-4.6392-2.1045-13.938-2.1045-16.236 0-0.69874 1.4578-0.8041 11.126-0.8041h11.126l0.62637 5.6152c4.3639 39.121 34.141 72.092 72.286 80.039 3.9741 0.82798 14.26 2.0974 17.009 2.0992 0.50208 0.00034 0.65292 2.595 0.65292 11.231v11.23l-4.5705-0.0538c-2.5138-0.0296-6.921-0.37266-9.7939-0.76235zm20.874 0.36066c-0.13252-0.13252-0.24094-5.1235-0.24094-11.091v-10.85l2.4811-0.32019c10.648-1.3741 16.868-2.8768 24.835-5.9998 10.608-4.1581 20.357-10.393 28.945-18.51 15.933-15.061 25.523-33.819 28.729-56.197l0.9355-6.5293 10.409-0.14194c5.7252-0.0781 10.583 0.0394 10.794 0.26117 0.97807 1.024-1.586 17.733-3.9991 26.06-12.13 41.859-45.31 73.058-86.585 81.415-6.2572 1.2669-15.824 2.3838-16.304 1.9034zm-19.306-52.627c-13.532-0.88344-26.768-3.2067-37.117-6.515-4.9565-1.5846-6.5022-2.2901-6.5124-2.9725-0.0195-1.309 12.15-38.765 12.595-38.765 0.20723 0 1.5159 1.4276 2.9081 3.1724 5.0918 6.3813 14.115 12.436 21.315 14.302 8.6308 2.2376 15.769-0.76193 15.617-6.5624-0.11029-4.2063-4.4066-7.4661-15.858-12.032-16.119-6.4271-24.134-12.119-28.342-20.127-2.582-4.9136-3.5043-9.1453-3.5092-16.101-0.008-11.287 2.981-18.988 10.145-26.139 3.5209-3.5146 5.1043-4.6433 9.693-6.9097 14.62-7.2207 36.49-9.1091 61.5-5.3102 13.298 2.0198 25.209 5.2285 25.209 6.791 0 1.0678-11.938 35.54-12.528 36.177-0.21941 0.23685-2.4852-1.6576-5.035-4.2098-8.0241-8.0316-14.924-11.565-23.491-12.029-5.7076-0.3091-7.9169 0.30273-10.109 2.7996-1.198 1.3644-1.5931 2.3237-1.5931 3.8675 0 4.2294 3.8653 6.8269 19.066 12.813 15.34 6.0406 25.197 11.659 29.474 16.8 7.6755 9.2262 9.0622 25.833 3.1757 38.03-5.6991 11.809-17.791 18.995-36.975 21.973-4.9617 0.77036-23.329 1.3563-29.627 0.94514zm-99.506-68.053c0-9.6857 3.0419-25.14 7.0524-35.828 11.672-31.11 35.378-55.284 66.044-67.351 9.8959-3.894 25.597-7.0826 34.876-7.0826h3.8087v10.89 10.89l-5.0928 0.31505c-36.42 2.253-68.845 27.792-80.553 63.448-2.5264 7.6937-4.1393 15.915-4.5579 23.232l-0.32144 5.618h-10.628-10.628v-4.1308z"/>
   <path fill="#3d4c88" d="m325.71 445.21c-19.671-2.6683-39.527-11.195-55.107-23.667-4.7087-3.769-13.592-12.613-17.383-17.304-11.788-14.592-20.279-32.872-23.867-51.387-0.89923-4.6392-2.1045-13.938-2.1045-16.236 0-0.69874 1.4578-0.8041 11.126-0.8041h11.126l0.62637 5.6152c4.3639 39.121 34.141 72.092 72.286 80.039 3.9741 0.82798 14.26 2.0974 17.009 2.0992 0.50208 0.00034 0.65292 2.595 0.65292 11.231v11.23l-4.5705-0.0538c-2.5138-0.0296-6.921-0.37266-9.7939-0.76235zm1.567-52.266c-13.532-0.88344-26.768-3.2067-37.117-6.515-4.9565-1.5846-6.5022-2.2901-6.5124-2.9725-0.0195-1.309 12.15-38.765 12.595-38.765 0.20723 0 1.5159 1.4276 2.9081 3.1724 5.0918 6.3813 14.115 12.436 21.315 14.302 8.6308 2.2376 15.769-0.76193 15.617-6.5624-0.11029-4.2063-4.4066-7.4661-15.858-12.032-16.119-6.4271-24.134-12.119-28.342-20.127-2.582-4.9136-3.5043-9.1453-3.5092-16.101-0.008-11.287 2.981-18.988 10.145-26.139 3.5209-3.5146 5.1043-4.6433 9.693-6.9097 14.62-7.2207 36.49-9.1091 61.5-5.3102 13.298 2.0198 25.209 5.2285 25.209 6.791 0 1.0678-11.938 35.54-12.528 36.177-0.21941 0.23685-2.4852-1.6576-5.035-4.2098-8.0241-8.0316-14.924-11.565-23.491-12.029-5.7076-0.3091-7.9169 0.30273-10.109 2.7996-1.198 1.3644-1.5931 2.3237-1.5931 3.8675 0 4.2294 3.8653 6.8269 19.066 12.813 15.34 6.0406 25.197 11.659 29.474 16.8 7.6755 9.2262 9.0622 25.833 3.1757 38.03-5.6991 11.809-17.791 18.995-36.975 21.973-4.9617 0.77036-23.329 1.3563-29.627 0.94514zm-99.506-68.053c0-9.6857 3.0419-25.14 7.0524-35.828 11.672-31.11 35.378-55.284 66.044-67.351 9.8959-3.894 25.597-7.0826 34.876-7.0826h3.8087v10.89 10.89l-5.0928 0.31505c-36.42 2.253-68.845 27.792-80.553 63.448-2.5264 7.6937-4.1393 15.915-4.5579 23.232l-0.32144 5.618h-10.628-10.628v-4.1308z"/>
   <path fill="#347d3e" d="m324.92 392.74c-13.876-1.0648-25.67-3.2779-36.433-6.8366-3.5131-1.1616-4.8336-1.8352-4.8387-2.4686-0.0105-1.3069 12.154-38.741 12.589-38.741 0.20682 0 1.5151 1.4276 2.9074 3.1724 8.2966 10.398 23.289 17.29 31.574 14.515 3.9158-1.3115 6.1076-4.8062 5.1785-8.2565-0.96032-3.5664-5.4009-6.4872-16.716-10.995-15.205-6.0578-23.157-11.79-27.305-19.682-2.582-4.9136-3.5043-9.1453-3.5092-16.101-0.008-11.287 2.981-18.988 10.145-26.139 3.5209-3.5146 5.1043-4.6433 9.693-6.9097 8.5041-4.2001 18.152-6.333 32.385-7.159 13.324-0.77332 35.825 2.0911 49.753 6.3339 3.4373 1.047 4.5705 1.6152 4.5705 2.2917 0 1.0335-11.947 35.545-12.525 36.182-0.21009 0.23131-2.5903-1.7831-5.2893-4.4765-7.8435-7.8271-14.572-11.224-23.24-11.731-5.7086-0.33427-7.9064 0.26983-10.109 2.7787-2.2241 2.5331-2.2032 5.2258 0.0606 7.804 2.05 2.3348 6.4795 4.588 18.058 9.1856 15.138 6.0113 23.937 10.984 28.395 16.05 2.7927 3.1726 5.5301 8.8937 6.536 13.66 1.7931 8.4957 0.12573 19.916-3.9346 26.95-5.9556 10.317-18.196 17.079-35.821 19.79-6.3832 0.98166-23.96 1.4108-32.124 0.78427zm-97.156-67.847c0-9.6857 3.0419-25.14 7.0524-35.828 11.672-31.11 35.378-55.284 66.044-67.351 9.8959-3.894 25.597-7.0826 34.876-7.0826h3.8087v10.89 10.89l-5.0928 0.31505c-36.42 2.253-68.845 27.792-80.553 63.448-2.5264 7.6937-4.1393 15.915-4.5579 23.232l-0.32144 5.618h-10.628-10.628v-4.1308z"/>
   <path fill="#010101" d="m322.31 392.21c-7.6076-0.70552-13.261-1.5324-19.904-2.911-6.008-1.2469-17.587-4.6444-18.376-5.3922-0.33144-0.31385 11.115-36.86 12.004-38.326 0.13945-0.22998 2.1431 1.6015 4.4526 4.0699 6.8033 7.2715 13.467 11.395 21.19 13.113 6.1708 1.3729 10.547 0.409 13.369-2.9444 0.9988-1.187 1.3676-2.2143 1.3661-3.8058-0.004-4.8577-3.2608-7.3782-16.905-13.085-17.399-7.2773-23.949-12.181-28.132-21.065-4.1492-8.8108-3.755-22.111 0.94474-31.882 5.5352-11.508 18.323-18.88 37.565-21.656 6.9539-1.0032 27.12-0.84243 35.201 0.28055 9.6104 1.3356 19.546 3.3704 25.024 5.1248 4.4783 1.4343 4.8291 1.6444 4.5037 2.6982-1.0527 3.4092-12.227 35.002-12.464 35.239-0.15432 0.15432-1.7016-1.2702-3.4385-3.1657-8.1222-8.8639-18.915-13.976-28.039-13.281-3.7648 0.28689-6.1838 1.5191-7.8573 4.0024-1.733 2.5716-1.5435 4.8399 0.60283 7.2156 2.1531 2.3832 6.6561 4.6612 18.947 9.5849 23.093 9.251 30.331 15.118 33.603 27.241 1.0218 3.785 1.1296 5.1772 0.89941 11.613-0.40145 11.225-2.6816 16.763-9.8269 23.866-6.4268 6.3889-15.615 10.439-28.949 12.761-5.5671 0.96931-28.134 1.4136-35.781 0.7045z"/>
  </g>
  <g transform="matrix(2.3095 0 0 -2.6179 42.713 570.47)">
   <g clip-path="url(#b)">
    <path d="m67.809 14.81c3.1 0 5.613-2.513 5.613-5.613v-3.586c0-3.099-2.513-5.611-5.613-5.611h-8.378c-3.099 0-5.612 2.512-5.612 5.611v2.215c0 3.857-3.127 6.984-6.985 6.984h-39.85c-3.857 0-6.984 3.126-6.984 6.984v8.637c0 3.858 3.127 6.985 6.984 6.985h39.85c3.858 0 6.985-3.127 6.985-6.985v-8.637c0-3.858 3.127-6.984 6.985-6.984h7.005" fill="#20180e"/>
    <g fill="#fff">
     <path d="m12.032 24.043c0 0.524-0.658 0.739-1.505 0.995l-1.694 0.51c-1.223 0.363-2.298 1.223-2.298 2.729 0 1.814 1.627 3.051 3.831 3.051 1.707 0 3.722-0.592 3.722-1.681 0-0.671-0.336-1.088-0.954-1.088-0.323 0-0.605 0.107-0.927 0.215-0.471 0.175-1.048 0.376-1.841 0.376-0.646 0-1.452-0.255-1.452-0.766 0-0.457 0.363-0.672 1.156-0.913l1.895-0.578c1.277-0.39 2.446-1.156 2.446-2.917 0-1.882-1.761-3.091-4.018-3.091-1.895 0-4.113 0.591-4.113 1.68 0 0.672 0.389 1.088 1.062 1.088 0.349 0 0.672-0.093 1.034-0.215 0.511-0.174 1.116-0.376 2.017-0.376 0.766 0 1.639 0.349 1.639 0.981"/>
     <path d="m23.55 30.118c0 0.766 0.404 1.155 1.156 1.155 0.766 0 1.169-0.389 1.169-1.155v-4.435c0-2.916-1.949-4.798-4.61-4.798-2.648 0-4.597 1.882-4.597 4.798v4.435c0 0.766 0.404 1.155 1.157 1.155 0.765 0 1.169-0.389 1.169-1.155v-4.435c0-1.573 0.954-2.514 2.271-2.514 1.331 0 2.285 0.941 2.285 2.514v4.435"/>
     <path d="m30.928 28.962v-2.701h1.963c0.887 0 1.585 0.403 1.585 1.344 0 0.954-0.698 1.357-1.585 1.357h-1.963zm2.124-4.812h-2.124v-2.056c0-0.766-0.403-1.156-1.169-1.156-0.752 0-1.156 0.39-1.156 1.156v7.93c0 0.766 0.404 1.156 1.156 1.156h3.333c2.232 0 3.777-1.465 3.777-3.575 0-1.29-0.592-2.272-1.586-2.796l1.075-2.15c0.107-0.215 0.147-0.416 0.147-0.619 0-0.671-0.765-1.102-1.343-1.102-0.43 0-0.739 0.256-0.954 0.739l-1.156 2.473"/>
     <path d="m41.707 24.594v-2.5c0-0.766-0.389-1.156-1.156-1.156-0.753 0-1.155 0.39-1.155 1.156v7.93c0 0.766 0.402 1.156 1.155 1.156h5.565c0.739 0 1.101-0.377 1.101-1.102 0-0.739-0.362-1.116-1.101-1.116h-4.409v-2.15h2.755c0.74 0 1.102-0.377 1.102-1.116 0-0.726-0.362-1.102-1.102-1.102h-2.755"/>
    </g>
    <g fill="#20180e">
     <path d="m65.759 24.077c0 0.534-0.671 0.754-1.534 1.014l-1.727 0.52c-1.247 0.37-2.342 1.247-2.342 2.783 0 1.849 1.657 3.11 3.904 3.11 1.74 0 3.796-0.603 3.796-1.713 0-0.686-0.343-1.11-0.973-1.11-0.329 0-0.617 0.11-0.945 0.219-0.481 0.178-1.069 0.384-1.878 0.384-0.657 0-1.479-0.261-1.479-0.781 0-0.466 0.37-0.685 1.178-0.932l1.932-0.589c1.302-0.397 2.494-1.178 2.494-2.973 0-1.919-1.795-3.152-4.098-3.152-1.931 0-4.192 0.603-4.192 1.713 0 0.685 0.397 1.11 1.082 1.11 0.356 0 0.686-0.096 1.056-0.219 0.52-0.179 1.136-0.384 2.054-0.384 0.782 0 1.672 0.357 1.672 1"/>
     <path d="m72.982 24.584h2.946l-1.467 3.303-1.479-3.303zm6.275-1.986c0.111-0.247 0.165-0.453 0.165-0.659 0-0.643-0.685-1.082-1.329-1.082-0.424 0-0.767 0.274-0.987 0.74l-0.439 0.945h-4.425l-0.439-0.945c-0.219-0.466-0.561-0.74-0.986-0.74-0.644 0-1.329 0.439-1.329 1.082 0 0.206 0.054 0.412 0.164 0.659l3.7 8.043c0.219 0.493 0.562 0.808 1.109 0.808 0.522 0 0.877-0.315 1.097-0.808l3.699-8.043"/>
     <path d="m83.356 29.092v-2.754h2c0.905 0 1.617 0.411 1.617 1.37 0 0.973-0.712 1.384-1.617 1.384h-2zm2.165-4.905h-2.165v-2.097c0-0.78-0.411-1.178-1.192-1.178-0.768 0-1.179 0.398-1.179 1.178v8.085c0 0.781 0.411 1.179 1.179 1.179h3.398c2.274 0 3.851-1.495 3.851-3.646 0-1.315-0.604-2.315-1.618-2.85l1.097-2.192c0.109-0.22 0.15-0.425 0.15-0.631 0-0.684-0.781-1.123-1.37-1.123-0.438 0-0.753 0.26-0.972 0.753l-1.179 2.522"/>
     <path d="m93.838 24.584h2.947l-1.467 3.303-1.48-3.303zm6.276-1.986c0.11-0.247 0.165-0.453 0.165-0.659 0-0.643-0.686-1.082-1.329-1.082-0.425 0-0.768 0.274-0.988 0.74l-0.438 0.945h-4.426l-0.438-0.945c-0.219-0.466-0.562-0.74-0.987-0.74-0.643 0-1.329 0.439-1.329 1.082 0 0.206 0.055 0.412 0.164 0.659l3.701 8.043c0.218 0.493 0.561 0.808 1.109 0.808 0.521 0 0.877-0.315 1.097-0.808l3.699-8.043"/>
    </g>
   </g>
  </g>
 </g>
</svg>
